<svg width="96" height="96" viewBox="0 0 96 96" fill="none" xmlns="http://www.w3.org/2000/svg">
  <rect width="96" height="96" rx="24" fill="#33691E"/>
  <rect x="4" y="4" width="88" height="88" rx="20" stroke="#DCEDC8" stroke-width="2" stroke-opacity="0.45"/>
  <path d="M60.031 19.5C53.202 19.5 47.492 22.471 43.674 27.806C40.059 32.857 38.676 39.268 39.865 45.558C46.156 46.747 52.567 45.364 57.618 41.749C62.953 37.931 65.924 32.221 65.924 25.392V19.5H60.031Z" fill="#DCEDC8"/>
  <path d="M34.498 68V33.818H46.859C51.206 33.818 54.42 34.705 56.5 36.48C58.612 38.223 59.668 40.618 59.668 43.665C59.668 45.756 59.154 47.562 58.126 49.081C57.13 50.6 55.691 51.738 53.809 52.495C56.095 53.029 57.87 54.104 59.133 55.72C60.431 57.336 61.08 59.332 61.08 61.708C61.08 65.022 59.992 67.61 57.815 69.473C55.67 71.303 52.583 72.234 48.556 72.266L34.498 72.303V68ZM41.628 52.938V66.569H48.4C50.314 66.569 51.796 66.142 52.848 65.288C53.907 64.401 54.438 63.154 54.438 61.547C54.438 57.853 52.511 55.983 48.659 55.935H41.628V52.938ZM41.628 47.915H46.972C50.657 47.851 52.5 46.43 52.5 43.649C52.5 42.082 51.988 40.951 50.962 40.257C49.936 39.531 48.301 39.168 46.057 39.168H41.628V47.915Z" fill="#FCFBF8"/>
  <path d="M49.353 30.843C52.243 30.843 54.585 33.186 54.585 36.075C54.585 41.712 50.015 46.282 44.379 46.282H43.354V45.257C43.354 39.621 47.924 35.05 53.561 35.05" stroke="#33691E" stroke-width="2.5" stroke-linecap="round" stroke-linejoin="round"/>
</svg>
